<svg width="720" height="220" viewBox="0 0 720 220" fill="none" xmlns="http://www.w3.org/2000/svg" role="img" aria-labelledby="title desc">
  <title id="title">GridPulse logo</title>
  <desc id="desc">A dark command center badge with an electric grid and pulse wave.</desc>
  <defs>
    <linearGradient id="panel" x1="80" y1="24" x2="640" y2="196" gradientUnits="userSpaceOnUse">
      <stop stop-color="#121826"/>
      <stop offset="1" stop-color="#07111F"/>
    </linearGradient>
    <linearGradient id="pulse" x1="145" y1="109" x2="574" y2="109" gradientUnits="userSpaceOnUse">
      <stop stop-color="#49D3FF"/>
      <stop offset="0.5" stop-color="#7CF7B6"/>
      <stop offset="1" stop-color="#FFD166"/>
    </linearGradient>
    <filter id="glow" x="112" y="28" width="492" height="156" filterUnits="userSpaceOnUse" color-interpolation-filters="sRGB">
      <feFlood flood-opacity="0" result="BackgroundImageFix"/>
      <feColorMatrix in="SourceAlpha" type="matrix" values="0 0 0 0 0 0 0 0 0 0 0 0 0 0 0 0 0 0 127 0" result="hardAlpha"/>
      <feOffset/>
      <feGaussianBlur stdDeviation="8"/>
      <feComposite in2="hardAlpha" operator="out"/>
      <feColorMatrix type="matrix" values="0 0 0 0 0.286 0 0 0 0 0.827 0 0 0 0 1 0 0 0 0.48 0"/>
      <feBlend mode="normal" in2="BackgroundImageFix" result="effect1_dropShadow_1_1"/>
      <feBlend mode="normal" in="SourceGraphic" in2="effect1_dropShadow_1_1" result="shape"/>
    </filter>
  </defs>
  <rect width="720" height="220" rx="28" fill="url(#panel)"/>
  <rect x="20" y="20" width="680" height="180" rx="22" stroke="#26384E" stroke-width="2"/>
  <path d="M120 62H598M120 110H598M120 158H598M160 44V176M240 44V176M320 44V176M400 44V176M480 44V176M560 44V176" stroke="#203047" stroke-width="2"/>
  <text x="68" y="67" text-anchor="middle" fill="#49D3FF" font-family="Inter, Segoe UI, Arial, sans-serif" font-size="18" font-weight="800" letter-spacing="0">G</text>
  <text x="68" y="93" text-anchor="middle" fill="#49D3FF" font-family="Inter, Segoe UI, Arial, sans-serif" font-size="18" font-weight="800" letter-spacing="0">R</text>
  <text x="68" y="119" text-anchor="middle" fill="#7CF7B6" font-family="Inter, Segoe UI, Arial, sans-serif" font-size="18" font-weight="800" letter-spacing="0">I</text>
  <text x="68" y="145" text-anchor="middle" fill="#7CF7B6" font-family="Inter, Segoe UI, Arial, sans-serif" font-size="18" font-weight="800" letter-spacing="0">D</text>
  <text x="652" y="54" text-anchor="middle" fill="#49D3FF" font-family="Inter, Segoe UI, Arial, sans-serif" font-size="18" font-weight="800" letter-spacing="0">P</text>
  <text x="652" y="80" text-anchor="middle" fill="#49D3FF" font-family="Inter, Segoe UI, Arial, sans-serif" font-size="18" font-weight="800" letter-spacing="0">U</text>
  <text x="652" y="106" text-anchor="middle" fill="#7CF7B6" font-family="Inter, Segoe UI, Arial, sans-serif" font-size="18" font-weight="800" letter-spacing="0">L</text>
  <text x="652" y="132" text-anchor="middle" fill="#7CF7B6" font-family="Inter, Segoe UI, Arial, sans-serif" font-size="18" font-weight="800" letter-spacing="0">S</text>
  <text x="652" y="158" text-anchor="middle" fill="#FFD166" font-family="Inter, Segoe UI, Arial, sans-serif" font-size="18" font-weight="800" letter-spacing="0">E</text>
  <g filter="url(#glow)">
    <path d="M132 120H174L198 78L230 150L264 96L296 126H336L364 62L394 158L424 110H468L494 84L526 132H594" stroke="url(#pulse)" stroke-width="9" stroke-linecap="round" stroke-linejoin="round"/>
  </g>
  <circle cx="132" cy="120" r="8" fill="#49D3FF"/>
  <circle cx="364" cy="62" r="8" fill="#7CF7B6"/>
  <circle cx="594" cy="132" r="8" fill="#FFD166"/>
  <text x="360" y="193" text-anchor="middle" fill="#D9F7FF" font-family="Inter, Segoe UI, Arial, sans-serif" font-size="16" font-weight="700" letter-spacing="3">NETWORK FAILURE FORECASTING</text>
</svg>
